# Blender 5.0.0
# www.blender.org
mtllib enemy.mtl
o Cube.001
o Cylinder
v 0.147817 1.705341 -0.148776
v 0.147702 1.981578 -0.156987
v 0.258092 1.647414 0.004508
v 0.242209 1.979295 0.015436
v 0.162542 1.591391 0.117621
v 0.168837 1.960130 0.156454
v 0.180932 2.345609 -0.240961
v 0.309922 2.245687 -0.055622
v 0.202067 2.262861 0.166013
v 0.079383 2.577021 -0.111283
v 0.387453 2.437609 -0.059797
v 0.084550 2.485898 0.076629
v 0.159922 1.554959 -0.232257
v 0.283809 1.578515 -0.010087
v 0.179680 1.410289 -0.184258
v 0.303523 1.406391 -0.014789
v 0.157501 1.402493 0.150146
v 0.011982 1.405003 0.000000
v 0.176983 1.152830 -0.165646
v 0.295049 1.146935 -0.027716
v 0.177291 1.133926 0.105119
v 0.073718 1.138371 -0.016062
v 0.289401 0.883767 -0.046329
v 0.204675 0.889545 -0.141237
v 0.206486 0.866769 0.044446
v 0.121852 0.871111 -0.038972
v 0.262907 0.526471 -0.020961
v 0.366337 0.536537 -0.121955
v 0.172444 0.526058 -0.112885
v 0.263259 0.537069 -0.226614
v 0.251154 0.178847 -0.067379
v 0.311858 0.164670 -0.121259
v 0.198220 0.163973 -0.117325
v 0.262898 0.157315 -0.173394
v 0.210823 0.119534 0.027011
v 0.302321 0.119372 0.027011
v 0.231055 0.057696 0.174355
v 0.307847 0.057512 0.174355
v 0.231055 0.027432 0.190009
v 0.307847 0.027247 0.190009
v 0.193089 0.026388 0.017642
v 0.343691 0.026204 0.017790
v 0.231055 0.031606 -0.172567
v 0.308137 0.031421 -0.172567
v 0.234332 0.100531 -0.183146
v 0.294275 0.100370 -0.183146
v 0.322954 0.108067 -0.096899
v 0.197220 0.105749 -0.096899
v 0.193089 0.028997 -0.080939
v 0.348137 0.028812 -0.080939
v 0.084446 1.427154 -0.202396
v 0.226613 0.757666 -0.003321
v 0.215142 0.841919 -0.157185
v 0.295689 0.803964 -0.076508
v 0.144457 0.790388 -0.074484
v 0.348814 2.346067 -0.171926
v 0.348814 2.340849 0.039286
v 0.410217 2.009438 -0.062081
v 0.525124 2.066825 -0.064899
v 0.470441 2.040121 -0.140575
v 0.468341 2.037712 0.001973
v 0.441823 1.941490 -0.046403
v 0.563059 2.002356 -0.054944
v 0.504411 1.964313 -0.133101
v 0.502159 1.979740 0.019204
v 0.614991 1.587976 0.079007
v 0.697536 1.614082 0.067740
v 0.656828 1.584967 0.014798
v 0.656790 1.615376 0.122894
v 0.625609 1.554474 0.080504
v 0.707191 1.568361 0.077203
v 0.665022 1.552082 0.023196
v 0.665564 1.568142 0.128896
v 0.630581 1.509704 0.089349
v 0.723439 1.510387 0.089198
v 0.676703 1.502845 0.032366
v 0.689672 1.516034 0.136888
v 0.644161 1.513567 0.132248
v 0.706283 1.503239 0.038631
v 0.638571 1.449367 0.102011
v 0.737909 1.469683 0.108470
v 0.689182 1.452951 0.039807
v 0.694780 1.462257 0.167244
v 0.639201 1.455186 0.152582
v 0.733978 1.464078 0.046661
v 0.676668 1.447642 0.099503
v 0.717330 1.404593 0.163283
v 0.752513 1.401694 0.127354
v 0.754086 1.394756 0.045301
v 0.718796 1.394510 0.039810
v 0.709327 1.400227 0.100581
v 0.720575 1.341078 0.179901
v 0.750841 1.335174 0.140189
v 0.751260 1.331425 0.057067
v 0.717910 1.334453 0.052133
v 0.710445 1.338603 0.114908
v 0.710779 1.270826 0.177914
v 0.730207 1.265158 0.152012
v 0.736199 1.264072 0.076738
v 0.710618 1.268973 0.068896
v 0.702121 1.270955 0.125550
v 0.654551 1.396763 0.186878
v 0.650061 1.390027 0.163916
v 0.685789 1.394317 0.162777
v 0.684214 1.400878 0.197293
v 0.670239 1.346620 0.205103
v 0.667218 1.339705 0.193813
v 0.687797 1.341954 0.191018
v 0.687182 1.349581 0.208616
v 0.065842 2.524527 0.024125
v 0.083629 2.547565 -0.045817
v 0.051782 2.637369 0.128490
v 0.092968 2.957253 0.013779
v 0.094908 2.873747 -0.109086
v 0.094373 2.780590 -0.102150
v 0.091372 2.750986 0.138689
v 0.065911 2.692852 -0.080274
v 0.052832 2.630668 0.049677
v 0.093433 2.871284 0.122873
v 0.108699 2.764805 0.013852
v 0.116361 2.873106 0.013369
v 0.083241 2.668662 0.003700
v 0.075316 2.940594 -0.076244
v 0.087618 2.931391 0.087701
v 0.088397 2.707955 0.010898
v 0.102859 2.803821 0.029290
v 0.091816 2.730620 -0.026662
v 0.104326 2.813546 -0.020350
v 0.103270 2.711244 0.010898
v 0.117893 2.801863 0.029290
v 0.115346 2.730363 -0.026662
v 0.131682 2.811363 -0.020350
v 0.000566 1.427154 -0.154483
v -0.147817 1.705341 -0.148776
v -0.147702 1.981578 -0.156987
v -0.258092 1.647414 0.004508
v -0.242209 1.979295 0.015436
v -0.162542 1.591391 0.117621
v -0.168837 1.960130 0.156454
v -0.180932 2.345609 -0.240961
v -0.309922 2.245687 -0.055622
v -0.202067 2.262861 0.166013
v -0.079383 2.577021 -0.111283
v -0.387453 2.437609 -0.059797
v -0.084550 2.485898 0.076629
v -0.159922 1.554959 -0.232257
v -0.283809 1.578515 -0.010087
v -0.179680 1.410289 -0.184258
v -0.303523 1.406391 -0.014789
v -0.157501 1.402493 0.150146
v -0.011982 1.405003 0.000000
v -0.176983 1.152830 -0.165646
v -0.295049 1.146935 -0.027716
v -0.177291 1.133926 0.105119
v -0.073718 1.138371 -0.016062
v -0.289401 0.883767 -0.046329
v -0.204675 0.889545 -0.141237
v -0.206486 0.866769 0.044446
v -0.121852 0.871111 -0.038972
v -0.262907 0.526471 -0.020961
v -0.366337 0.536537 -0.121955
v -0.172444 0.526058 -0.112885
v -0.263259 0.537069 -0.226614
v -0.251154 0.178847 -0.067379
v -0.311858 0.164670 -0.121259
v -0.198220 0.163973 -0.117325
v -0.262898 0.157315 -0.173394
v -0.210823 0.119534 0.027011
v -0.302321 0.119372 0.027011
v -0.231055 0.057696 0.174355
v -0.307847 0.057512 0.174355
v -0.231055 0.027432 0.190009
v -0.307847 0.027247 0.190009
v -0.193089 0.026388 0.017642
v -0.343691 0.026204 0.017790
v -0.231055 0.031606 -0.172567
v -0.308137 0.031421 -0.172567
v -0.234332 0.100531 -0.183146
v -0.294275 0.100370 -0.183146
v -0.322954 0.108067 -0.096899
v -0.197220 0.105749 -0.096899
v -0.193089 0.028997 -0.080939
v -0.348137 0.028812 -0.080939
v -0.084446 1.427154 -0.202396
v -0.226613 0.757666 -0.003321
v -0.215142 0.841919 -0.157185
v -0.295689 0.803964 -0.076508
v -0.144457 0.790388 -0.074484
v -0.348814 2.346067 -0.171926
v -0.348814 2.340849 0.039286
v -0.410217 2.009438 -0.062081
v -0.525124 2.066825 -0.064899
v -0.470441 2.040121 -0.140575
v -0.468341 2.037712 0.001973
v -0.441823 1.941490 -0.046403
v -0.563059 2.002356 -0.054944
v -0.504411 1.964313 -0.133101
v -0.502159 1.979740 0.019204
v -0.614991 1.587976 0.079007
v -0.697536 1.614082 0.067740
v -0.656828 1.584967 0.014798
v -0.656790 1.615376 0.122894
v -0.625609 1.554474 0.080504
v -0.707191 1.568361 0.077203
v -0.665022 1.552082 0.023196
v -0.665564 1.568142 0.128896
v -0.630581 1.509704 0.089349
v -0.723439 1.510387 0.089198
v -0.676703 1.502845 0.032366
v -0.689672 1.516034 0.136888
v -0.644161 1.513567 0.132248
v -0.706283 1.503239 0.038631
v -0.638571 1.449367 0.102011
v -0.737909 1.469683 0.108470
v -0.689182 1.452951 0.039807
v -0.694780 1.462257 0.167244
v -0.639201 1.455186 0.152582
v -0.733978 1.464078 0.046661
v -0.676668 1.447642 0.099503
v -0.717330 1.404593 0.163283
v -0.752513 1.401694 0.127354
v -0.754086 1.394756 0.045301
v -0.718796 1.394510 0.039810
v -0.709327 1.400227 0.100581
v -0.720575 1.341078 0.179901
v -0.750841 1.335174 0.140189
v -0.751260 1.331425 0.057067
v -0.717910 1.334453 0.052133
v -0.710445 1.338603 0.114908
v -0.710779 1.270826 0.177914
v -0.730207 1.265158 0.152012
v -0.736199 1.264072 0.076738
v -0.710618 1.268973 0.068896
v -0.702121 1.270955 0.125550
v -0.654551 1.396763 0.186878
v -0.650061 1.390027 0.163916
v -0.685789 1.394317 0.162777
v -0.684214 1.400878 0.197293
v -0.670239 1.346620 0.205103
v -0.667218 1.339705 0.193813
v -0.687797 1.341954 0.191018
v -0.687182 1.349581 0.208616
v -0.065842 2.524527 0.024125
v -0.083629 2.547565 -0.045817
v 0.000000 2.519132 0.057971
v 0.000000 2.580645 -0.142004
v -0.051782 2.637369 0.128490
v -0.092968 2.957253 0.013779
v -0.094908 2.873747 -0.109086
v -0.094373 2.780590 -0.102150
v -0.091372 2.750986 0.138689
v -0.065911 2.692852 -0.080274
v -0.052832 2.630668 0.049677
v -0.093433 2.871284 0.122873
v -0.108699 2.764805 0.013852
v -0.116361 2.873106 0.013369
v -0.083241 2.668662 0.003700
v -0.075316 2.940594 -0.076244
v -0.087618 2.931391 0.087701
v 0.000000 2.699374 -0.107998
v -0.088397 2.707955 0.010898
v -0.102859 2.803821 0.029290
v -0.091816 2.730620 -0.026662
v -0.104326 2.813546 -0.020350
v -0.103270 2.711244 0.010898
v -0.117893 2.801863 0.029290
v -0.115346 2.730363 -0.026662
v -0.131682 2.811363 -0.020350
v 0.000000 2.962682 0.112688
v 0.000000 2.608684 0.090698
v 0.000000 2.787340 -0.141264
v 0.000000 2.873583 -0.146001
v 0.000000 2.618955 0.166152
v 0.000000 2.750298 0.187436
v 0.000000 2.873169 0.167114
v 0.000000 2.987697 0.010782
v 0.000000 2.973450 -0.089264
v 0.000000 1.722222 -0.177819
v 0.000000 1.998459 -0.186030
v 0.000000 1.591391 0.168229
v 0.000000 1.960130 0.207062
v 0.000000 2.362490 -0.281978
v 0.000000 2.262861 0.216622
v 0.000000 2.485898 0.076629
v 0.000000 1.554959 -0.187497
v 0.000000 1.405003 0.000000
v -0.000566 1.427154 -0.154483
vn 0.1896 -0.0291 -0.9814
vn 0.8484 0.0247 -0.5288
vn 0.8362 -0.0275 0.5477
vn 0.8894 -0.1098 0.4438
vn -0.0336 0.2801 -0.9594
vn 0.1522 0.4834 0.8621
vn 0.2630 -0.0449 0.9638
vn 0.7823 -0.2640 -0.5641
vn 0.6660 -0.6453 0.3741
vn 0.3125 0.5650 -0.7636
vn 0.2630 0.5393 -0.8000
vn 0.8087 0.3507 -0.4723
vn 0.7256 0.1276 0.6762
vn -0.7101 0.1378 0.6905
vn 0.8440 0.0320 -0.5355
vn 0.7371 0.0817 0.6708
vn 0.7465 -0.0705 0.6617
vn 0.7453 -0.0700 0.6630
vn 0.7470 -0.0657 0.6616
vn -0.7749 0.0161 -0.6319
vn 0.7853 -0.0238 -0.6187
vn -0.7707 -0.0899 -0.6308
vn -0.7261 -0.1862 0.6619
vn 0.7489 -0.0564 0.6602
vn 0.7514 -0.0592 0.6572
vn 0.7458 -0.0561 0.6638
vn -0.7917 -0.1148 -0.6000
vn -0.7244 -0.2076 0.6574
vn 0.7545 0.0244 -0.6559
vn -0.1277 0.2966 0.9464
vn 0.7107 0.2773 -0.6466
vn -0.6934 -0.1692 0.7004
vn 0.6995 0.0599 0.7121
vn 0.7164 -0.1018 -0.6902
vn -0.7348 -0.0695 -0.6747
vn -0.6983 -0.0649 0.7128
vn 0.6808 -0.1087 0.7244
vn 0.0015 0.8464 0.5325
vn 0.0019 0.9221 0.3869
vn 0.0011 0.4594 0.8882
vn -0.0016 -1.0000 0.0061
vn -0.0017 -0.9996 -0.0295
vn -0.0021 -0.9996 -0.0294
vn -0.0016 -0.9996 -0.0284
vn -0.0004 -0.1517 -0.9884
vn 0.0005 0.1690 -0.9856
vn 0.8331 0.2480 -0.4944
vn 0.7298 0.6393 0.2422
vn -0.7980 0.1510 -0.5834
vn -0.8252 0.5156 0.2308
vn 0.9351 0.3212 0.1498
vn -0.0012 -0.9996 -0.0265
vn -0.0004 -0.9996 -0.0272
vn -0.0022 -0.9996 -0.0268
vn 0.9164 0.1772 -0.3589
vn 0.9279 0.3617 0.0904
vn -0.9212 -0.0239 -0.3885
vn -0.9901 0.1295 0.0540
vn -0.9674 0.1494 0.2045
vn 0.1429 0.9770 0.1581
vn -0.0683 -0.9883 -0.1367
vn -0.6653 -0.4204 0.6170
vn 0.7289 0.3157 -0.6075
vn -0.7779 0.0507 -0.6264
vn 0.7538 -0.1578 0.6379
vn 0.7796 0.2769 -0.5617
vn -0.6717 -0.3277 0.6644
vn 0.4330 0.8132 -0.3888
vn 0.3892 0.5120 0.7658
vn 0.3765 0.7220 0.5805
vn 0.2431 -0.7731 -0.5859
vn -0.6829 -0.1691 0.7107
vn -0.6662 -0.4048 -0.6264
vn -0.7344 -0.3279 -0.5943
vn 0.7475 0.2465 0.6168
vn 0.7774 0.0702 -0.6251
vn 0.6704 0.4377 0.5992
vn 0.5763 0.4840 0.6585
vn 0.7108 0.2844 -0.6434
vn 0.7824 0.0364 -0.6217
vn 0.7680 0.2503 0.5895
vn -0.6792 -0.5016 -0.5358
vn -0.6995 -0.0933 0.7085
vn -0.1064 0.1025 0.9890
vn -0.7851 -0.2479 -0.5675
vn -0.7982 -0.3037 -0.5202
vn -0.7194 -0.1091 0.6859
vn -0.9888 0.0161 0.1487
vn -0.7550 -0.2507 -0.6059
vn 0.7486 0.3739 0.5475
vn 0.2071 -0.1314 -0.9695
vn -0.8615 0.1998 0.4668
vn 0.8004 0.2972 -0.5206
vn -0.8510 -0.5022 -0.1536
vn 0.8922 0.3984 -0.2126
vn -0.2082 0.4026 0.8914
vn 0.7281 0.4309 0.5331
vn 0.1860 -0.0861 -0.9788
vn 0.7308 0.2895 0.6182
vn -0.0515 -0.9937 -0.0992
vn -0.9906 -0.0311 -0.1333
vn 0.9994 -0.0319 0.0141
vn 0.1428 0.0661 -0.9875
vn -0.8571 -0.4569 0.2381
vn 0.9700 0.2405 -0.0369
vn -0.9784 0.1382 0.1539
vn 0.7800 -0.1262 0.6130
vn 0.1396 -0.1938 -0.9711
vn 0.7560 0.1533 0.6363
vn -0.9901 0.0002 0.1406
vn -0.1963 -0.9805 0.0012
vn -0.2348 -0.9714 0.0364
vn 0.9694 -0.2412 0.0466
vn -0.9868 0.0877 -0.1364
vn 0.1660 -0.2867 -0.9435
vn -0.9445 -0.1760 0.2773
vn -0.3061 0.4409 0.8437
vn -0.9846 -0.1478 0.0938
vn 0.9835 -0.1213 -0.1339
vn 0.1153 -0.8911 0.4390
vn 0.9980 0.0579 0.0262
vn -0.0035 -0.4932 -0.8699
vn -0.3093 0.2131 0.9268
vn -0.0072 -0.7438 -0.6683
vn 0.5117 0.7689 0.3834
vn 0.9874 -0.0457 -0.1513
vn 0.9313 0.3080 -0.1946
vn 0.9541 0.2373 0.1829
vn 0.9855 -0.0300 0.1673
vn 0.9435 -0.3051 0.1293
vn 0.8135 -0.5785 0.0600
vn 0.9895 0.0949 -0.1088
vn 0.9328 -0.0623 0.3550
vn 0.3756 0.2675 -0.8873
vn 0.5555 -0.2032 0.8063
vn 0.3885 0.4845 0.7838
vn 0.9355 -0.2874 -0.2055
vn 0.3613 0.9145 -0.1823
vn 0.3408 0.9003 0.2709
vn 0.4465 0.1278 0.8856
vn 0.5258 -0.1915 0.8288
vn 0.3305 0.4766 -0.8146
vn 0.3702 -0.0614 -0.9269
vn 0.3396 -0.3313 -0.8803
vn 0.4241 -0.8999 0.1019
vn -0.9888 0.1492 -0.0000
vn 0.0037 0.0761 -0.9971
vn 0.9549 -0.2034 0.2165
vn 0.0087 -0.1948 0.9808
vn 0.0693 -0.8778 -0.4740
vn 0.0952 0.9745 0.2033
vn -0.3525 -0.1248 -0.9274
vn 0.2123 -0.6472 0.7322
vn 0.1782 -0.2437 -0.9533
vn 0.2906 -0.1027 0.9513
vn 0.1291 0.7145 0.6876
vn -0.1896 -0.0291 -0.9814
vn -0.8484 0.0247 -0.5288
vn -0.8362 -0.0275 0.5477
vn -0.8894 -0.1098 0.4438
vn 0.0336 0.2801 -0.9594
vn -0.1522 0.4834 0.8621
vn -0.2630 -0.0449 0.9638
vn -0.7823 -0.2640 -0.5641
vn -0.6660 -0.6453 0.3741
vn -0.3125 0.5650 -0.7636
vn -0.2630 0.5393 -0.8000
vn -0.8087 0.3507 -0.4723
vn -0.7256 0.1276 0.6762
vn 0.7101 0.1378 0.6905
vn -0.8440 0.0320 -0.5355
vn -0.7371 0.0817 0.6708
vn -0.7465 -0.0705 0.6617
vn -0.7470 -0.0657 0.6616
vn -0.7453 -0.0700 0.6630
vn 0.7749 0.0161 -0.6319
vn -0.7853 -0.0238 -0.6187
vn 0.7707 -0.0899 -0.6308
vn 0.7261 -0.1862 0.6619
vn -0.7489 -0.0564 0.6602
vn -0.7458 -0.0561 0.6638
vn -0.7514 -0.0592 0.6572
vn 0.7917 -0.1148 -0.6000
vn 0.7244 -0.2076 0.6574
vn -0.7545 0.0244 -0.6559
vn 0.1277 0.2966 0.9464
vn -0.7107 0.2773 -0.6466
vn 0.6934 -0.1692 0.7004
vn -0.6995 0.0599 0.7121
vn -0.7164 -0.1018 -0.6902
vn 0.7348 -0.0695 -0.6747
vn 0.6983 -0.0649 0.7128
vn -0.6808 -0.1087 0.7244
vn -0.0015 0.8464 0.5325
vn -0.0019 0.9221 0.3869
vn -0.0011 0.4594 0.8882
vn 0.0016 -1.0000 0.0061
vn 0.0017 -0.9996 -0.0295
vn 0.0016 -0.9996 -0.0284
vn 0.0021 -0.9996 -0.0294
vn 0.0004 -0.1517 -0.9884
vn -0.0005 0.1690 -0.9856
vn -0.8331 0.2480 -0.4944
vn -0.7298 0.6393 0.2422
vn 0.7980 0.1510 -0.5834
vn 0.8252 0.5156 0.2308
vn -0.9351 0.3212 0.1498
vn 0.0012 -0.9996 -0.0265
vn 0.0022 -0.9996 -0.0268
vn 0.0004 -0.9996 -0.0272
vn -0.9164 0.1772 -0.3589
vn -0.9279 0.3617 0.0904
vn 0.9212 -0.0239 -0.3885
vn 0.9901 0.1295 0.0540
vn 0.9674 0.1494 0.2045
vn -0.1429 0.9770 0.1581
vn 0.0683 -0.9883 -0.1367
vn 0.6653 -0.4204 0.6170
vn -0.7289 0.3157 -0.6075
vn 0.7779 0.0507 -0.6264
vn -0.7538 -0.1578 0.6379
vn -0.7796 0.2769 -0.5617
vn 0.6717 -0.3277 0.6644
vn -0.4330 0.8132 -0.3888
vn -0.3892 0.5120 0.7658
vn -0.3765 0.7220 0.5805
vn -0.2431 -0.7731 -0.5859
vn 0.6829 -0.1691 0.7107
vn 0.6662 -0.4048 -0.6264
vn 0.7344 -0.3279 -0.5943
vn -0.7475 0.2465 0.6168
vn -0.7774 0.0702 -0.6251
vn -0.6704 0.4377 0.5992
vn -0.5763 0.4840 0.6585
vn -0.7108 0.2844 -0.6434
vn -0.7824 0.0364 -0.6217
vn -0.7680 0.2503 0.5895
vn 0.6792 -0.5016 -0.5358
vn 0.6995 -0.0933 0.7085
vn 0.1064 0.1025 0.9890
vn 0.7851 -0.2479 -0.5675
vn 0.7982 -0.3037 -0.5202
vn 0.7194 -0.1091 0.6859
vn 0.9888 0.0161 0.1487
vn 0.7550 -0.2507 -0.6059
vn -0.7486 0.3739 0.5475
vn -0.2071 -0.1314 -0.9695
vn 0.8615 0.1998 0.4668
vn -0.8004 0.2972 -0.5206
vn 0.8510 -0.5022 -0.1536
vn -0.8922 0.3984 -0.2126
vn 0.2082 0.4026 0.8914
vn -0.7281 0.4309 0.5331
vn -0.1860 -0.0861 -0.9788
vn -0.7308 0.2895 0.6182
vn 0.0515 -0.9937 -0.0992
vn 0.9906 -0.0311 -0.1333
vn -0.9994 -0.0319 0.0141
vn -0.1428 0.0661 -0.9875
vn 0.8571 -0.4569 0.2381
vn -0.9700 0.2405 -0.0369
vn 0.9784 0.1382 0.1539
vn -0.7800 -0.1262 0.6130
vn -0.1396 -0.1938 -0.9711
vn -0.7560 0.1533 0.6363
vn 0.9901 0.0002 0.1406
vn 0.1963 -0.9805 0.0012
vn 0.2348 -0.9714 0.0364
vn -0.9694 -0.2412 0.0466
vn 0.9868 0.0877 -0.1364
vn -0.1660 -0.2867 -0.9435
vn 0.9445 -0.1760 0.2773
vn 0.3061 0.4409 0.8437
vn 0.9846 -0.1478 0.0938
vn -0.9835 -0.1213 -0.1339
vn -0.1153 -0.8911 0.4390
vn -0.9980 0.0579 0.0262
vn 0.0035 -0.4932 -0.8699
vn 0.3093 0.2131 0.9268
vn 0.0072 -0.7438 -0.6683
vn -0.5117 0.7689 0.3834
vn -0.9874 -0.0457 -0.1513
vn -0.9313 0.3080 -0.1946
vn -0.9541 0.2373 0.1829
vn -0.9855 -0.0300 0.1673
vn -0.9435 -0.3051 0.1293
vn -0.8135 -0.5785 0.0600
vn -0.9895 0.0949 -0.1088
vn -0.9328 -0.0623 0.3550
vn -0.3756 0.2675 -0.8873
vn -0.5555 -0.2032 0.8063
vn -0.3885 0.4845 0.7838
vn -0.9355 -0.2874 -0.2055
vn -0.3613 0.9145 -0.1823
vn -0.3408 0.9003 0.2709
vn -0.4465 0.1278 0.8856
vn -0.5258 -0.1915 0.8288
vn -0.3305 0.4766 -0.8146
vn -0.3702 -0.0614 -0.9269
vn -0.3396 -0.3313 -0.8803
vn -0.4241 -0.8999 0.1019
vn 0.9888 0.1492 -0.0000
vn -0.0037 0.0761 -0.9971
vn -0.9549 -0.2034 0.2165
vn -0.0087 -0.1948 0.9808
vn -0.0693 -0.8778 -0.4740
vn -0.0952 0.9745 0.2033
vn 0.3525 -0.1248 -0.9274
vn -0.2123 -0.6472 0.7322
vn -0.1782 -0.2437 -0.9533
vn -0.2906 -0.1027 0.9513
vn -0.1291 0.7145 0.6876
vt 0.215132 0.363986
vt 0.195897 0.288503
vt 0.232263 0.273097
vt 0.251528 0.348566
vt 0.535133 0.208222
vt 0.542039 0.122605
vt 0.602564 0.130069
vt 0.591648 0.232146
vt 0.381441 0.238963
vt 0.371894 0.165853
vt 0.416350 0.181215
vt 0.428192 0.254491
vt 0.625468 0.141358
vt 0.604731 0.045136
vt 0.643564 0.048281
vt 0.277850 0.395278
vt 0.228882 0.410869
vt 0.455283 0.098726
vt 0.395611 0.121823
vt 0.398701 0.040776
vt 0.419889 0.027733
vt 0.467695 0.163244
vt 0.538125 0.006987
vt 0.741791 0.843970
vt 0.741791 0.767365
vt 0.765366 0.788108
vt 0.226261 0.175521
vt 0.163524 0.113491
vt 0.260970 0.149698
vt 0.182775 0.195877
vt 0.146552 0.124488
vt 0.590091 0.252884
vt 0.510872 0.251446
vt 0.375604 0.255632
vt 0.876499 0.000000
vt 0.934841 0.054799
vt 0.871673 0.059044
vt 0.586661 0.305873
vt 0.521879 0.297994
vt 0.444072 0.300113
vt 0.377852 0.295473
vt 0.389768 0.348706
vt 0.443599 0.354572
vt 0.437911 0.407678
vt 0.400134 0.402277
vt 0.895493 0.721130
vt 0.926558 0.717367
vt 0.933972 0.812373
vt 0.895762 0.800660
vt 0.573392 0.385483
vt 0.517771 0.378211
vt 0.876659 0.538281
vt 0.944010 0.560758
vt 0.930003 0.630897
vt 0.884471 0.615456
vt 0.933669 0.138150
vt 0.884926 0.142172
vt 0.924036 0.701858
vt 0.888961 0.693734
vt 0.936494 0.221460
vt 0.900846 0.224777
vt 0.559030 0.466022
vt 0.520212 0.460483
vt 0.136992 0.866594
vt 0.133115 0.903179
vt 0.104927 0.896018
vt 0.516368 0.474584
vt 0.549758 0.489505
vt 0.541550 0.570402
vt 0.496885 0.566088
vt 0.912190 0.258321
vt 0.943709 0.246363
vt 0.953822 0.328348
vt 0.914899 0.330356
vt 0.396892 0.415842
vt 0.429428 0.426963
vt 0.427966 0.480185
vt 0.383547 0.477831
vt 0.520154 0.685202
vt 0.498068 0.685407
vt 0.911826 0.912426
vt 0.887714 0.903281
vt 0.956797 0.441103
vt 0.934811 0.437683
vt 0.438836 0.546803
vt 0.414666 0.550664
vt 0.468560 0.568581
vt 0.445639 0.582730
vt 0.492679 0.608700
vt 0.473444 0.620587
vt 0.496885 0.617800
vt 0.477650 0.629687
vt 0.626220 0.852494
vt 0.602322 0.852494
vt 0.590505 0.798870
vt 0.637372 0.798915
vt 0.638754 0.768180
vt 0.590503 0.768182
vt 0.602317 0.739656
vt 0.626305 0.739656
vt 0.919379 0.947728
vt 0.896894 0.947817
vt 0.901942 0.929772
vt 0.919426 0.929708
vt 0.526474 0.703633
vt 0.499123 0.702648
vt 0.418875 0.568610
vt 0.882832 0.917007
vt 0.952442 0.459435
vt 0.916947 0.456821
vt 0.591857 0.729706
vt 0.594887 0.739656
vt 0.556827 0.733363
vt 0.555094 0.704906
vt 0.501979 0.724362
vt 0.532331 0.728749
vt 0.876659 0.936550
vt 0.950078 0.483436
vt 0.923776 0.485454
vt 0.871673 0.487664
vt 0.875365 0.478068
vt 0.136992 0.964163
vt 0.672819 0.788086
vt 0.694597 0.767365
vt 0.687801 0.834032
vt 0.684181 0.834924
vt 0.801437 0.178724
vt 0.842968 0.160688
vt 0.836533 0.275416
vt 0.806332 0.276290
vt 0.385847 0.629687
vt 0.425060 0.648101
vt 0.434424 0.722689
vt 0.406637 0.722556
vt 0.788351 0.106794
vt 0.803059 0.120715
vt 0.332576 0.107228
vt 0.300691 0.076271
vt 0.374196 0.007645
vt 0.715788 0.955433
vt 0.715788 0.884691
vt 0.746620 0.932021
vt 0.432233 0.745710
vt 0.402756 0.742867
vt 0.140110 0.942838
vt 0.165669 0.950638
vt 0.166557 0.971763
vt 0.140652 0.960492
vt 0.136992 0.872876
vt 0.166557 0.866594
vt 0.310099 0.185845
vt 0.282573 0.177584
vt 0.808126 0.300544
vt 0.840497 0.296551
vt 0.863904 0.426119
vt 0.841550 0.429804
vt 0.277850 0.199089
vt 0.307404 0.206458
vt 0.304159 0.326344
vt 0.284162 0.324112
vt 0.864367 0.440838
vt 0.842492 0.440544
vt 0.305234 0.338960
vt 0.285564 0.337086
vt 0.222288 0.867540
vt 0.255656 0.866594
vt 0.246056 0.933556
vt 0.222288 0.935304
vt 0.408349 0.869504
vt 0.388239 0.867140
vt 0.313741 0.348099
vt 0.303050 0.355322
vt 0.180678 0.875568
vt 0.192623 0.890213
vt 0.187523 0.901796
vt 0.174528 0.885325
vt 0.183284 0.866594
vt 0.196000 0.882796
vt 0.409603 0.880089
vt 0.389947 0.882059
vt 0.397573 0.897364
vt 0.410921 0.894313
vt 0.412313 0.913609
vt 0.398768 0.916031
vt 0.182586 0.913911
vt 0.166557 0.898513
vt 0.286337 0.354154
vt 0.849594 0.457481
vt 0.842956 0.456351
vt 0.865637 0.459605
vt 0.702357 0.888858
vt 0.714670 0.903526
vt 0.699826 0.904480
vt 0.869747 0.473683
vt 0.853290 0.470591
vt 0.321337 0.363314
vt 0.309697 0.372685
vt 0.288050 0.368341
vt 0.195209 0.904325
vt 0.196000 0.915679
vt 0.306028 0.388111
vt 0.290933 0.388439
vt 0.746620 0.904490
vt 0.761834 0.884691
vt 0.758450 0.903396
vt 0.715152 0.922450
vt 0.699564 0.924049
vt 0.851024 0.491863
vt 0.871673 0.495941
vt 0.869430 0.516872
vt 0.848565 0.511724
vt 0.190261 0.934738
vt 0.181061 0.931348
vt 0.680861 0.888360
vt 0.681837 0.906525
vt 0.680755 0.926856
vt 0.702098 0.944960
vt 0.686994 0.947886
vt 0.296745 0.404741
vt 0.311144 0.405120
vt 0.316521 0.418617
vt 0.307292 0.418718
vt 0.178977 0.947449
vt 0.170797 0.943435
vt 0.941454 0.505435
vt 0.942692 0.487664
vt 0.950823 0.489493
vt 0.950823 0.512982
vt 0.945434 0.521463
vt 0.863427 0.538281
vt 0.845670 0.533072
vt 0.715788 0.943036
vt 0.841879 0.509566
vt 0.839732 0.530334
vt 0.393356 0.936902
vt 0.400533 0.936795
vt 0.395189 0.955006
vt 0.391191 0.954035
vt 0.326338 0.383899
vt 0.320572 0.389239
vt 0.255656 0.866594
vt 0.274581 0.875886
vt 0.267469 0.895086
vt 0.259582 0.891111
vt 0.493532 0.753454
vt 0.491746 0.758530
vt 0.488178 0.758987
vt 0.488178 0.752523
vt 0.260510 0.909907
vt 0.255656 0.908921
vt 0.527718 0.924950
vt 0.538426 0.923649
vt 0.534092 0.934760
vt 0.527718 0.935169
vt 0.385847 0.938075
vt 0.387464 0.954326
vt 0.761834 0.923309
vt 0.750730 0.923992
vt 0.392214 0.021086
vt 0.808925 0.046658
vt 0.814499 0.018133
vt 0.848530 0.028149
vt 0.838965 0.060554
vt 0.824482 0.000000
vt 0.851145 0.002261
vt 0.866593 0.015489
vt 0.871673 0.036377
vt 0.865945 0.073697
vt 0.824659 0.088032
vt 0.847862 0.106056
vt 0.827947 0.102138
vt 0.802712 0.073953
vt 0.815612 0.132466
vt 0.767444 0.101301
vt 0.785074 0.068167
vt 0.395086 0.000000
vt 0.416674 0.003191
vt 0.415008 0.017506
vt 0.005930 0.937636
vt 0.008749 0.916774
vt 0.038505 0.914534
vt 0.037014 0.945945
vt 0.003007 0.894620
vt 0.000000 0.877588
vt 0.023236 0.866594
vt 0.032068 0.886163
vt 0.000000 0.966864
vt 0.030668 0.976770
vt 0.003477 0.988271
vt 0.020484 1.000000
vt 0.130542 0.010945
vt 0.145410 0.029661
vt 0.125478 0.044063
vt 0.109949 0.011973
vt 0.783615 0.039197
vt 0.789109 0.012903
vt 0.560600 0.887340
vt 0.560273 0.911823
vt 0.544159 0.923649
vt 0.544159 0.900232
vt 0.927656 0.518344
vt 0.928088 0.487664
vt 0.941454 0.488067
vt 0.938599 0.513951
vt 0.487972 0.656383
vt 0.487972 0.631241
vt 0.495724 0.629687
vt 0.494588 0.654586
vt 0.577477 0.944934
vt 0.575434 0.919268
vt 0.586544 0.920270
vt 0.586544 0.949377
vt 0.925610 0.516806
vt 0.925610 0.487701
vt 0.488178 0.740656
vt 0.495471 0.740001
vt 0.492786 0.752088
vt 0.488178 0.752523
vt 0.487972 0.698847
vt 0.496078 0.700247
vt 0.496078 0.714034
vt 0.491533 0.713408
vt 0.262930 0.437162
vt 0.233736 0.443374
vt 0.741791 0.857298
vt 0.696446 0.884691
vt 0.509615 0.116116
vt 0.496885 -0.000000
vt 0.477959 0.237492
vt 0.172888 0.384040
vt 0.153684 0.308545
vt 0.125821 0.400913
vt 0.103951 0.306648
vt 0.733805 0.262569
vt 0.687532 0.277781
vt 0.683917 0.162625
vt 0.733543 0.159177
vt 0.691372 0.068564
vt 0.767444 0.077806
vt 0.192770 0.433658
vt 0.441077 0.014690
vt 0.496885 0.059480
vt 0.643564 0.160998
vt 0.645738 0.066768
vt 0.076458 0.247059
vt 0.130003 0.218943
vt 0.749762 0.046993
vt 0.075398 0.233410
vt 0.121291 0.132542
vt 0.126168 0.424164
vt 0.740715 0.284334
vt 0.494857 0.851103
vt 0.494857 0.900132
vt 0.434424 0.880892
vt 0.191312 0.472046
vt 0.134319 0.474352
vt 0.742417 0.338000
vt 0.675094 0.335971
vt 0.740472 0.418788
vt 0.740437 0.500831
vt 0.702748 0.504317
vt 0.686073 0.420221
vt 0.829425 0.732271
vt 0.812458 0.813968
vt 0.767444 0.809607
vt 0.796254 0.715647
vt 0.208383 0.541192
vt 0.157603 0.545892
vt 0.876659 0.541193
vt 0.859642 0.624438
vt 0.803225 0.618505
vt 0.800082 0.538281
vt 0.490777 0.949231
vt 0.445966 0.932051
vt 0.843190 0.707581
vt 0.802584 0.701025
vt 0.487373 0.994098
vt 0.452769 0.983056
vt 0.216967 0.615125
vt 0.181226 0.619251
vt 0.196642 0.866594
vt 0.222288 0.899173
vt 0.196001 0.911530
vt 0.219993 0.630791
vt 0.239693 0.726178
vt 0.197282 0.730276
vt 0.189785 0.644430
vt 0.487972 0.650523
vt 0.484045 0.695584
vt 0.449424 0.677485
vt 0.459476 0.629687
vt 0.748251 0.526122
vt 0.767444 0.610283
vt 0.723872 0.611356
vt 0.717001 0.539051
vt 0.260209 0.826530
vt 0.239155 0.826186
vt 0.803853 0.926604
vt 0.778131 0.928455
vt 0.456946 0.760581
vt 0.436202 0.754006
vt 0.752793 0.725567
vt 0.728975 0.720036
vt 0.450074 0.795428
vt 0.476891 0.793150
vt 0.487972 0.839182
vt 0.465469 0.841083
vt 0.487643 0.849201
vt 0.465140 0.851103
vt 0.603038 0.965332
vt 0.591886 0.911753
vt 0.638753 0.911708
vt 0.626935 0.965332
vt 0.590503 0.881019
vt 0.602952 0.852494
vt 0.626940 0.852494
vt 0.638754 0.881020
vt 0.257360 0.866594
vt 0.257471 0.846776
vt 0.273404 0.839539
vt 0.277850 0.857294
vt 0.236887 0.841160
vt 0.747166 0.742847
vt 0.710968 0.737353
vt 0.808832 0.945039
vt 0.780055 0.945544
vt 0.434424 0.771149
vt 0.671526 0.754377
vt 0.718552 0.766659
vt 0.666873 0.763546
vt 0.233753 0.864744
vt 0.745669 0.767365
vt 0.813038 0.969104
vt 0.782786 0.967092
vt 0.838695 0.943200
vt 0.838549 0.971719
vt 0.872856 0.965348
vt 0.876659 0.975029
vt 0.222288 0.956289
vt 0.672477 0.788170
vt 0.680560 0.835816
vt 0.643564 0.779942
vt 0.575434 0.925929
vt 0.560600 0.921287
vt 0.560600 0.887340
vt 0.573195 0.889001
vt 0.061151 0.329815
vt 0.033763 0.322930
vt 0.042251 0.203796
vt 0.968028 0.545576
vt 0.965505 0.601583
vt 0.944446 0.587802
vt 0.944010 0.538281
vt 0.112936 0.135906
vt 0.700049 -0.000000
vt 0.100816 0.934484
vt 0.062289 0.949245
vt 0.060259 0.866594
vt 0.104927 0.866594
vt 0.527718 0.958082
vt 0.496885 0.934670
vt 0.527718 0.887340
vt 0.968548 0.618832
vt 0.945638 0.606415
vt 0.365454 0.736851
vt 0.363657 0.758640
vt 0.330552 0.750987
vt 0.334930 0.726861
vt 0.385847 0.662232
vt 0.349626 0.629687
vt 0.312289 0.629687
vt 0.328417 0.745894
vt 0.300990 0.753327
vt 0.277850 0.657670
vt 0.056643 0.354186
vt 0.022892 0.465145
vt 0.002309 0.457747
vt 0.027007 0.344452
vt 0.330552 0.765999
vt 0.311731 0.885292
vt 0.290561 0.883606
vt 0.300652 0.771253
vt 0.021937 0.474517
vt 0.001760 0.470747
vt 0.309863 0.899388
vt 0.289448 0.898228
vt 0.364165 0.872842
vt 0.340303 0.873293
vt 0.970986 0.722358
vt 0.955032 0.714299
vt 0.967952 0.733263
vt 0.968766 0.746566
vt 0.955341 0.742944
vt 0.362519 0.883413
vt 0.363681 0.897527
vt 0.340930 0.899352
vt 0.340867 0.883754
vt 0.954097 0.721662
vt 0.372482 0.897221
vt 0.378248 0.915613
vt 0.365217 0.916578
vt 0.340403 0.915136
vt 0.308131 0.917288
vt 0.290146 0.914434
vt 0.021151 0.488753
vt 0.012354 0.491690
vt 0.950311 0.732534
vt 0.000000 0.487712
vt 0.666296 0.888144
vt 0.660957 0.903438
vt 0.643564 0.904680
vt 0.648661 0.886026
vt 0.318765 0.920309
vt 0.320271 0.932518
vt 0.304507 0.929680
vt 0.964279 0.764282
vt 0.947258 0.758475
vt 0.281825 0.930619
vt 0.020450 0.503405
vt 0.006728 0.505162
vt 0.300483 0.950555
vt 0.285360 0.948757
vt 0.925610 0.507463
vt 0.913780 0.506369
vt 0.910395 0.487664
vt 0.664475 0.922757
vt 0.646908 0.923455
vt 0.322501 0.954212
vt 0.317698 0.973649
vt 0.295517 0.970970
vt 0.016891 0.523067
vt 0.006697 0.526792
vt 0.680755 0.884691
vt 0.675846 0.902937
vt 0.679593 0.922906
vt 0.680755 0.944530
vt 0.668661 0.943742
vt 0.287742 0.992359
vt 0.277850 0.989993
vt 0.280223 0.968205
vt 0.019795 0.538524
vt 0.010439 0.542964
vt 0.766369 0.861740
vt 0.757000 0.869287
vt 0.757000 0.845799
vt 0.765132 0.843970
vt 0.762390 0.877768
vt 0.308764 0.994106
vt 0.652504 0.943854
vt 0.024166 0.554350
vt 0.016597 0.558140
vt 0.384133 0.934528
vt 0.385847 0.950611
vt 0.383400 0.952530
vt 0.378916 0.936178
vt 0.954382 0.782332
vt 0.945216 0.778678
vt 0.757000 0.843970
vt 0.753678 0.866317
vt 0.744693 0.870006
vt 0.741791 0.848792
vt 0.488178 0.759919
vt 0.493532 0.758987
vt 0.493532 0.765452
vt 0.489964 0.764995
vt 0.757000 0.883784
vt 0.751683 0.884552
vt 0.495865 0.680578
vt 0.495865 0.695047
vt 0.491704 0.698847
vt 0.487972 0.686997
vt 0.949280 0.794894
vt 0.944010 0.793504
vt 0.921500 0.526965
vt 0.910395 0.526282
vt 0.573853 0.867703
vt 0.541636 0.887340
vt 0.552463 0.875240
vt 0.589153 0.794929
vt 0.560499 0.800185
vt 0.561160 0.766442
vt 0.590503 0.765917
vt 0.556800 0.740407
vt 0.578182 0.745362
vt 0.528237 0.767558
vt 0.536340 0.748762
vt 0.524440 0.805057
vt 0.559779 0.830215
vt 0.521597 0.840609
vt 0.542888 0.842393
vt 0.579334 0.822482
vt 0.590503 0.858320
vt 0.111861 0.096504
vt 0.132894 0.089026
vt 0.532981 0.877448
vt 0.523659 0.849709
vt 0.501543 0.767708
vt 0.515535 0.739656
vt 0.071618 0.019306
vt 0.094528 -0.000000
vt 0.090473 0.029020
vt 0.060259 0.914361
vt 0.057662 0.892059
vt 0.496885 0.806011
vt 0.503411 0.846795
vt 0.094918 0.052438
vt 0.100948 0.077494
vt 0.131171 0.067454
vt 0.527718 0.887340
vt 0.528044 0.911823
vt 0.588800 0.919268
vt 0.577925 0.912687
vt 0.575434 0.887340
vt 0.588800 0.889868
vt 0.496066 0.680578
vt 0.489187 0.680521
vt 0.487972 0.656846
vt 0.496066 0.656383
vt 0.270544 0.934995
vt 0.258105 0.939847
vt 0.257988 0.911456
vt 0.273654 0.909907
vt 0.255656 0.940703
vt 0.255656 0.910684
vt 0.495471 0.728134
vt 0.495471 0.740001
vt 0.490863 0.739567
vt 0.488178 0.727479
vt 0.496078 0.714034
vt 0.495487 0.727479
vt 0.491192 0.727316
vt 0.488178 0.714034
vt 0.871673 0.487664
vt 0.910396 0.493561
vt 0.910396 0.534517
vt 0.883941 0.529842
vt 0.643564 0.881506
vt 0.648179 0.276186
vt 0.425214 0.000772
s 0
usemtl Skin
f 278/1/1 279/2/1 2/3/1 1/4/1
f 1/5/2 2/6/2 4/7/2 3/8/2
f 3/9/3 4/10/3 6/11/3 5/12/3
f 6/13/4 4/7/4 8/14/4 9/15/4
f 278/1/5 1/4/5 13/16/5 285/17/5
f 283/18/6 9/19/6 12/20/6 284/21/6
f 281/22/7 6/11/7 9/19/7 283/18/7
f 4/7/8 2/6/8 7/23/8 8/14/8
f 9/24/9 8/25/9 57/26/9
f 7/27/10 10/28/10 56/29/10
f 7/27/11 282/30/11 246/31/11 10/28/11
f 1/5/12 3/8/12 14/32/12 13/33/12
f 3/9/13 5/12/13 14/34/13
f 5/35/14 18/36/14 17/37/14
f 13/33/15 14/32/15 16/38/15 15/39/15
f 14/34/16 5/12/16 17/40/16 16/41/16
f 20/42/17 21/43/18 25/44/19 23/45/19
f 55/46/20 53/47/20 30/48/20 29/49/20
f 15/39/21 16/38/21 20/50/21 19/51/21
f 18/52/22 15/53/22 19/54/22 22/55/22
f 17/37/23 18/36/23 22/56/23 21/57/23
f 16/41/24 17/40/24 21/43/25 20/42/26
f 22/55/27 19/54/27 24/58/27 26/59/27
f 21/57/28 22/56/28 26/60/28 25/61/28
f 19/51/29 20/50/29 23/62/29 24/63/29
f 13/64/30 51/65/30 15/66/30
f 53/67/31 54/68/31 28/69/31 30/70/31
f 52/71/32 55/72/32 29/73/32 27/74/32
f 54/75/33 52/76/33 27/77/33 28/78/33
f 30/70/34 28/69/34 32/79/34 34/80/34
f 29/49/35 30/48/35 34/81/35 33/82/35
f 27/74/36 29/73/36 33/83/36 31/84/36
f 28/78/37 27/77/37 31/85/37 32/86/37
f 35/87/38 36/88/38 31/85/38
f 36/88/39 35/87/39 37/89/39 38/90/39
f 38/90/40 37/89/40 39/91/40 40/92/40
f 40/93/41 39/94/41 41/95/41 42/96/41
f 50/97/42 49/98/43 43/99/44 44/100/44
f 44/101/45 43/102/45 45/103/45 46/104/45
f 45/103/46 34/81/46 46/104/46
f 32/79/47 47/105/47 46/106/47 34/80/47
f 32/86/48 31/85/48 36/88/48 47/107/48
f 33/82/49 34/81/49 45/103/49 48/108/49
f 33/83/50 48/109/50 35/110/50 31/84/50
f 38/111/51 40/112/51 42/113/51 36/114/51
f 42/96/52 41/95/52 49/98/53 50/97/54
f 44/115/55 46/106/55 47/105/55 50/116/55
f 50/116/56 47/105/56 36/114/56 42/113/56
f 49/117/57 48/108/57 45/103/57 43/102/57
f 48/109/58 49/118/58 41/119/58 35/110/58
f 35/110/59 41/119/59 39/120/59 37/121/59
f 15/66/60 51/65/60 18/122/60
f 133/123/61 51/124/61 18/125/61 286/126/61
f 25/61/62 26/60/62 55/72/62 52/71/62
f 24/63/63 23/62/63 54/68/63 53/67/63
f 26/59/64 24/58/64 53/47/64 55/46/64
f 23/45/65 25/44/65 52/76/65 54/75/65
f 56/127/66 11/128/66 59/129/66 60/130/66
f 57/131/67 8/132/67 58/133/67 61/134/67
f 11/128/68 56/127/68 10/135/68 111/136/68
f 12/20/69 9/19/69 57/137/69
f 12/20/70 57/137/70 11/138/70 111/139/70
f 8/140/71 7/141/71 56/142/71
f 61/134/72 58/133/72 62/143/72 65/144/72
f 58/145/73 60/146/73 64/147/73 62/148/73
f 8/149/74 56/150/74 60/146/74 58/145/74
f 11/138/75 57/137/75 61/151/75 59/152/75
f 64/153/76 63/154/76 67/155/76 68/156/76
f 63/157/77 65/158/77 69/159/77 67/160/77
f 59/152/78 61/151/78 65/158/78 63/157/78
f 60/130/79 59/129/79 63/154/79 64/153/79
f 68/156/80 67/155/80 71/161/80 72/162/80
f 67/160/81 69/159/81 73/163/81 71/164/81
f 62/165/82 64/166/82 68/167/82 66/168/82
f 65/144/83 62/143/83 66/169/83 69/170/83
f 73/163/84 78/171/84 77/172/84
f 70/173/85 72/174/85 76/175/85 74/176/85
f 66/177/86 68/178/86 72/174/86 70/173/86
f 69/170/87 66/169/87 70/179/87 73/180/87
f 78/181/88 74/182/88 80/183/88 84/184/88
f 74/176/89 76/175/89 82/185/89 80/186/89
f 71/164/90 73/163/90 77/172/90 75/187/90
f 72/162/91 79/188/91 76/189/91
f 78/181/92 73/180/92 70/179/92 74/182/92
f 79/188/93 72/162/93 71/161/93 75/190/93
f 86/191/94 82/141/94 90/192/94 91/193/94
f 79/188/95 75/190/95 81/194/95 85/195/95
f 77/172/96 78/171/96 84/196/96 83/197/96
f 75/187/97 77/172/97 83/197/97 81/198/97
f 76/175/98 79/199/98 85/200/98 82/185/98
f 81/198/99 83/197/99 87/201/99 88/202/99
f 80/203/100 82/204/100 86/205/100
f 91/193/101 90/192/101 95/206/101 96/207/101
f 89/208/102 88/209/102 93/210/102 94/211/102
f 82/185/103 85/200/103 89/212/103 90/213/103
f 83/214/104 86/191/104 91/193/104 87/215/104
f 85/195/105 81/194/105 88/209/105 89/208/105
f 92/216/106 96/207/106 101/217/106 97/218/106
f 93/219/107 92/220/107 97/221/107 98/222/107
f 90/213/108 89/212/108 94/223/108 95/224/108
f 88/202/109 87/201/109 92/220/109 93/219/109
f 87/215/110 91/193/110 96/207/110 92/216/110
f 101/225/111 100/226/111 99/227/111 98/228/111
f 97/229/112 101/225/112 98/228/112
f 94/211/113 93/210/113 98/230/113 99/231/113
f 96/207/114 95/206/114 100/232/114 101/217/114
f 95/233/115 94/211/115 99/231/115 100/234/115
f 102/235/116 103/236/116 107/237/116 106/238/116
f 83/197/117 84/196/117 102/239/117 105/240/117
f 84/184/118 80/183/118 103/236/118 102/235/118
f 86/241/119 83/242/119 105/243/119 104/244/119
f 109/245/120 106/246/120 107/247/120 108/248/120
f 104/244/121 105/243/121 109/249/121 108/250/121
f 103/251/122 104/252/122 108/253/122 107/254/122
f 105/255/123 102/235/123 106/238/123 109/256/123
f 80/203/124 86/205/124 104/257/124 103/258/124
f 111/139/125 110/259/125 12/20/125
f 115/260/126 114/261/126 121/262/126 120/263/126
f 114/261/127 123/264/127 113/265/127 121/262/127
f 121/262/128 113/265/128 124/266/128 119/267/128
f 120/263/129 121/262/129 119/267/129 116/268/129
f 122/269/130 120/263/130 116/268/130 112/270/130
f 118/271/131 122/269/131 112/270/131
f 117/272/132 122/269/132 111/136/132 10/135/132
f 122/269/133 118/271/133 110/273/133 111/136/133
f 117/272/134 10/135/134 246/274/134 260/275/134
f 118/276/135 270/277/135 245/278/135 110/259/135
f 119/279/136 124/280/136 269/281/136 275/282/136
f 122/269/137 117/272/137 115/260/137 120/263/137
f 113/283/138 123/284/138 277/285/138 276/286/138
f 124/280/139 113/283/139 276/286/139 269/281/139
f 116/287/140 119/279/140 275/282/140 274/288/140
f 112/289/141 116/287/141 274/288/141 273/290/141
f 123/291/142 114/292/142 272/293/142 277/294/142
f 115/260/143 271/295/143 272/296/143 114/261/143
f 117/272/144 260/275/144 271/295/144 115/260/144
f 118/297/145 112/298/145 273/299/145 270/300/145
f 125/301/146 126/302/146 128/303/146 127/304/146
f 127/305/147 128/306/147 132/307/147 131/308/147
f 131/309/148 132/310/148 130/311/148 129/312/148
f 129/313/149 130/314/149 126/302/149 125/301/149
f 127/315/150 131/316/150 129/317/150 125/318/150
f 132/319/151 128/320/151 126/321/151 130/322/151
f 13/16/152 51/323/152 133/324/152 285/17/152
f 5/325/153 280/326/153 286/126/153 18/125/153
f 2/6/154 279/327/154 282/328/154 7/23/154
f 5/12/155 6/11/155 281/22/155 280/329/155
f 284/21/156 12/20/156 110/259/156 245/278/156
f 278/1/157 134/330/157 135/331/157 279/2/157
f 134/330/158 136/332/158 137/333/158 135/331/158
f 136/334/159 138/335/159 139/336/159 137/337/159
f 139/336/160 142/338/160 141/339/160 137/337/160
f 278/1/161 285/17/161 146/340/161 134/330/161
f 283/18/162 284/21/162 145/341/162 142/342/162
f 281/343/163 283/344/163 142/338/163 139/336/163
f 137/333/164 141/345/164 140/346/164 135/331/164
f 142/338/165 190/347/165 141/339/165
f 140/346/166 189/348/166 143/349/166
f 140/346/167 143/349/167 246/31/167 282/30/167
f 134/330/168 146/340/168 147/350/168 136/332/168
f 136/334/169 147/351/169 138/335/169
f 138/352/170 150/353/170 151/354/170
f 146/340/171 148/355/171 149/356/171 147/350/171
f 147/351/172 149/357/172 150/358/172 138/335/172
f 153/359/173 156/360/174 158/361/174 154/362/175
f 188/363/176 162/364/176 163/365/176 186/366/176
f 148/355/177 152/367/177 153/368/177 149/356/177
f 151/369/178 155/370/178 152/371/178 148/372/178
f 150/353/179 154/373/179 155/374/179 151/354/179
f 149/357/180 153/359/181 154/362/182 150/358/180
f 155/370/183 159/375/183 157/376/183 152/371/183
f 154/373/184 158/377/184 159/378/184 155/374/184
f 152/367/185 157/379/185 156/380/185 153/368/185
f 146/381/186 148/382/186 184/383/186
f 186/384/187 163/385/187 161/386/187 187/387/187
f 185/388/188 160/389/188 162/390/188 188/391/188
f 187/392/189 161/393/189 160/394/189 185/395/189
f 163/385/190 167/396/190 165/397/190 161/386/190
f 162/364/191 166/398/191 167/399/191 163/365/191
f 160/389/192 164/400/192 166/401/192 162/390/192
f 161/393/193 165/402/193 164/403/193 160/394/193
f 168/404/194 164/400/194 169/405/194
f 169/405/195 171/406/195 170/407/195 168/404/195
f 171/406/196 173/408/196 172/409/196 170/407/196
f 173/410/197 175/411/197 174/412/197 172/413/197
f 183/414/198 177/415/199 176/416/199 182/417/200
f 177/418/201 179/419/201 178/420/201 176/421/201
f 178/420/202 179/419/202 167/396/202
f 165/397/203 167/396/203 179/419/203 180/422/203
f 165/402/204 180/423/204 169/424/204 164/403/204
f 166/398/205 181/425/205 178/426/205 167/399/205
f 166/401/206 164/400/206 168/404/206 181/427/206
f 171/428/207 169/424/207 175/429/207 173/430/207
f 175/411/208 183/414/209 182/417/210 174/412/208
f 177/418/211 183/431/211 180/422/211 179/419/211
f 183/432/212 175/429/212 169/424/212 180/423/212
f 182/433/213 176/434/213 178/426/213 181/425/213
f 181/425/214 168/435/214 174/436/214 182/433/214
f 168/435/215 170/437/215 172/438/215 174/436/215
f 148/382/216 151/439/216 184/383/216
f 287/440/217 286/126/217 151/441/217 184/442/217
f 158/443/218 185/444/218 188/445/218 159/446/218
f 157/379/219 186/384/219 187/387/219 156/380/219
f 159/375/220 188/363/220 186/366/220 157/376/220
f 156/360/221 187/392/221 185/395/221 158/361/221
f 189/348/222 193/447/222 192/448/222 144/449/222
f 190/450/223 194/451/223 191/452/223 141/453/223
f 144/449/224 244/454/224 143/349/224 189/348/224
f 145/455/225 190/347/225 142/338/225
f 145/456/226 244/457/226 144/458/226 190/459/226
f 141/460/227 189/461/227 140/462/227
f 194/451/228 198/463/228 195/464/228 191/452/228
f 191/465/229 195/466/229 197/467/229 193/468/229
f 141/469/230 191/465/230 193/468/230 189/470/230
f 144/471/231 192/472/231 194/473/231 190/474/231
f 197/475/232 201/476/232 200/477/232 196/478/232
f 196/479/233 200/480/233 202/481/233 198/482/233
f 192/472/234 196/479/234 198/482/234 194/473/234
f 193/447/235 197/475/235 196/478/235 192/448/235
f 201/476/236 205/483/236 204/484/236 200/477/236
f 200/480/237 204/485/237 206/486/237 202/481/237
f 195/466/238 199/487/238 201/488/238 197/467/238
f 198/463/239 202/489/239 199/490/239 195/464/239
f 206/491/240 210/492/240 211/493/240
f 203/494/241 207/495/241 209/496/241 205/497/241
f 199/487/242 203/494/242 205/497/242 201/488/242
f 202/489/243 206/491/243 203/498/243 199/490/243
f 211/499/244 217/500/244 213/501/244 207/495/244
f 207/495/245 213/501/245 215/502/245 209/496/245
f 204/485/246 208/503/246 210/504/246 206/486/246
f 205/483/247 209/505/247 212/506/247
f 211/493/248 207/507/248 203/498/248 206/491/248
f 212/506/249 208/508/249 204/484/249 205/483/249
f 219/509/250 224/510/250 223/511/250 215/512/250
f 212/513/251 218/514/251 214/515/251 208/503/251
f 210/492/252 216/516/252 217/517/252 211/493/252
f 208/503/253 214/515/253 216/518/253 210/504/253
f 209/505/254 215/519/254 218/520/254 212/506/254
f 214/515/255 221/521/255 220/522/255 216/518/255
f 213/523/256 219/524/256 215/525/256
f 224/510/257 229/526/257 228/527/257 223/511/257
f 222/528/258 227/529/258 226/530/258 221/521/258
f 215/519/259 223/531/259 222/532/259 218/520/259
f 216/533/260 220/534/260 224/510/260 219/509/260
f 218/514/261 222/528/261 221/521/261 214/515/261
f 225/535/262 230/536/262 234/537/262 229/526/262
f 226/530/263 231/538/263 230/539/263 225/540/263
f 223/531/264 228/541/264 227/542/264 222/532/264
f 221/521/265 226/530/265 225/540/265 220/522/265
f 220/534/266 225/535/266 229/526/266 224/510/266
f 234/543/267 231/544/267 232/545/267 233/546/267
f 230/547/268 231/544/268 234/543/268
f 227/529/269 232/548/269 231/538/269 226/530/269
f 229/526/270 234/537/270 233/549/270 228/527/270
f 228/541/271 233/550/271 232/551/271 227/542/271
f 235/552/272 239/553/272 240/554/272 236/555/272
f 216/516/273 238/556/273 235/557/273 217/517/273
f 217/500/274 235/552/274 236/555/274 213/501/274
f 219/558/275 237/559/275 238/560/275 216/561/275
f 242/562/276 241/563/276 240/564/276 239/565/276
f 237/559/277 241/566/277 242/567/277 238/560/277
f 236/568/278 240/569/278 241/570/278 237/571/278
f 238/556/279 242/572/279 239/573/279 235/557/279
f 213/523/280 236/574/280 237/575/280 219/524/280
f 244/576/281 145/577/281 243/578/281
f 250/579/282 255/580/282 256/581/282 249/582/282
f 249/582/283 256/581/283 248/583/283 258/584/283
f 256/581/284 254/585/284 259/586/284 248/583/284
f 255/580/285 251/587/285 254/585/285 256/581/285
f 257/588/286 247/589/286 251/587/286 255/580/286
f 253/590/287 247/589/287 257/588/287
f 252/591/288 143/592/288 244/576/288 257/588/288
f 257/588/289 244/576/289 243/578/289 253/590/289
f 252/593/290 260/594/290 246/31/290 143/349/290
f 253/590/291 243/578/291 245/595/291 270/596/291
f 254/585/292 275/597/292 269/598/292 259/586/292
f 257/588/293 255/580/293 250/579/293 252/591/293
f 248/599/294 276/600/294 277/294/294 258/601/294
f 259/602/295 269/281/295 276/286/295 248/603/295
f 251/587/296 274/604/296 275/597/296 254/585/296
f 247/589/297 273/605/297 274/604/297 251/587/297
f 258/601/298 277/294/298 272/293/298 249/606/298
f 250/607/299 249/606/299 272/293/299 271/608/299
f 252/593/300 250/607/300 271/608/300 260/594/300
f 253/609/301 270/300/301 273/299/301 247/610/301
f 261/611/302 263/612/302 264/613/302 262/614/302
f 263/615/303 267/616/303 268/617/303 264/618/303
f 267/619/304 265/620/304 266/621/304 268/622/304
f 265/620/305 261/623/305 262/624/305 266/621/305
f 263/625/306 261/626/306 265/627/306 267/628/306
f 268/629/307 266/630/307 262/631/307 264/632/307
f 146/633/308 285/634/308 287/635/308 184/636/308
f 138/637/309 151/441/309 286/126/309 280/326/309
f 135/331/310 140/346/310 282/30/310 279/2/310
f 138/335/311 280/638/311 281/343/311 139/336/311
f 284/21/312 245/278/312 243/639/312 145/341/312
